<?xml version="1.0" encoding="utf-8"?>
<!-- Generator: Adobe Illustrator 21.1.0, SVG Export Plug-In . SVG Version: 6.00 Build 0)  -->
<svg version="1.1" id="Capa_1" xmlns="http://www.w3.org/2000/svg" xmlns:xlink="http://www.w3.org/1999/xlink" x="0px" y="0px"
	 viewBox="0 0 1600 1000" style="enable-background:new 0 0 1600 1000;" xml:space="preserve">
<style type="text/css">
	.st0{fill:#1EBEE6;}
</style>
<g>
	<g id="calendar_1_">
		<path class="st0" d="M1216.7,93.8h-135.4V31.3c0-17.3-14-31.3-31.3-31.3s-31.3,14-31.3,31.3v62.5H831.3V31.3
			C831.3,14,817.3,0,800,0s-31.3,14-31.3,31.3v62.5H581.3V31.3C581.3,14,567.3,0,550,0s-31.3,14-31.3,31.3v62.5H383.3
			c-46,0-83.3,37.3-83.3,83.3v739.6c0,46,37.3,83.3,83.3,83.3h833.3c46,0,83.3-37.3,83.3-83.3V177.1
			C1300,131,1262.7,93.8,1216.7,93.8z M1237.5,916.7c0,11.5-9.3,20.8-20.8,20.8H383.3c-11.5,0-20.8-9.3-20.8-20.8V177.1
			c0-11.5,9.3-20.8,20.8-20.8h135.4v62.5c0,17.3,14,31.3,31.3,31.3s31.3-14,31.3-31.3v-62.5h187.5v62.5c0,17.3,14,31.3,31.3,31.3
			s31.3-14,31.3-31.3v-62.5h187.5v62.5c0,17.3,14,31.3,31.3,31.3s31.3-14,31.3-31.3v-62.5h135.4c11.5,0,20.8,9.3,20.8,20.8V916.7z"
			/>
		<rect x="518.8" y="375" class="st0" width="125" height="93.8"/>
		<rect x="518.8" y="531.3" class="st0" width="125" height="93.8"/>
		<rect x="518.8" y="687.5" class="st0" width="125" height="93.8"/>
		<rect x="737.5" y="687.5" class="st0" width="125" height="93.8"/>
		<rect x="737.5" y="531.3" class="st0" width="125" height="93.8"/>
		<rect x="737.5" y="375" class="st0" width="125" height="93.8"/>
		<rect x="956.3" y="687.5" class="st0" width="125" height="93.8"/>
		<rect x="956.3" y="531.3" class="st0" width="125" height="93.8"/>
		<rect x="956.3" y="375" class="st0" width="125" height="93.8"/>
	</g>
</g>
</svg>
